<svg xmlns="http://www.w3.org/2000/svg" xmlns:xlink="http://www.w3.org/1999/xlink" width="500" zoomAndPan="magnify" viewBox="0 0 375 374.999991" height="500" preserveAspectRatio="xMidYMid meet" version="1.0"><path fill="#252422" d="M 151.9375 137.066406 C 168.042969 127.960938 187.617188 125.003906 206.847656 130.34375 C 226.082031 135.683594 241.328125 148.320312 250.433594 164.417969 C 259.539062 180.519531 262.496094 200.097656 257.15625 219.332031 C 251.816406 238.558594 239.179688 253.8125 223.078125 262.914062 C 206.980469 272.019531 187.402344 274.976562 168.167969 269.636719 C 148.9375 264.296875 133.691406 251.667969 124.582031 235.5625 C 115.480469 219.460938 112.523438 199.878906 117.863281 180.652344 C 123.203125 161.417969 135.835938 146.167969 151.9375 137.066406 " fill-opacity="1" fill-rule="nonzero"/><path fill="#ff6600" d="M 229.292969 174.78125 C 227.40625 174.21875 225.496094 173.75 223.570312 173.328125 C 223.058594 173.21875 222.6875 172.828125 222.597656 172.3125 C 220.296875 158.828125 213.957031 145.886719 203.761719 136.625 C 203.328125 136.230469 203.21875 135.605469 203.503906 135.089844 C 203.789062 134.574219 204.367188 134.328125 204.9375 134.480469 L 205.640625 134.671875 C 219.320312 138.378906 231.308594 146.332031 240.203125 157.34375 C 240.464844 157.667969 240.546875 158.0625 240.4375 158.464844 C 240.328125 158.867188 240.054688 159.167969 239.664062 159.3125 C 232.722656 161.914062 231.167969 166.300781 230.910156 173.621094 C 230.894531 174.023438 230.710938 174.363281 230.386719 174.597656 C 230.058594 174.832031 229.675781 174.898438 229.292969 174.78125 Z M 217.589844 172.238281 C 214.816406 171.824219 212.023438 171.527344 209.222656 171.34375 C 208.644531 171.304688 208.179688 170.898438 208.070312 170.332031 C 203.792969 148.519531 181.039062 147.667969 163.15625 147.144531 C 158.863281 147.019531 154.101562 146.972656 149.882812 146.214844 C 149.367188 146.121094 148.984375 145.75 148.875 145.238281 C 148.765625 144.726562 148.964844 144.226562 149.398438 143.933594 C 150.941406 142.886719 152.527344 141.898438 154.152344 140.984375 C 165.625 134.496094 178.734375 131.46875 191.890625 132.332031 C 192.082031 132.34375 192.242188 132.390625 192.410156 132.480469 C 206.710938 140.25 215.808594 155.070312 219.007812 170.742188 C 219.09375 171.15625 218.980469 171.550781 218.6875 171.859375 C 218.398438 172.164062 218.007812 172.300781 217.589844 172.238281 Z M 144.945312 148.144531 C 149.625 150.257812 157.929688 150.234375 163.0625 150.382812 C 174.023438 150.703125 190.199219 151.070312 198.648438 159.042969 C 201.699219 161.921875 203.566406 165.503906 204.574219 169.546875 C 204.671875 169.941406 204.589844 170.320312 204.339844 170.636719 C 204.089844 170.953125 203.742188 171.117188 203.335938 171.109375 C 175.417969 170.742188 142.878906 180.734375 121.820312 199.269531 C 121.4375 199.609375 120.917969 199.683594 120.457031 199.464844 C 119.992188 199.25 119.714844 198.804688 119.730469 198.292969 C 119.871094 192.734375 120.707031 187.210938 122.195312 181.851562 C 125.832031 168.75 133.238281 157.125 143.613281 148.328125 C 143.992188 148.007812 144.492188 147.9375 144.945312 148.144531 Z M 139.492188 247.851562 C 135.203125 243.535156 131.5 238.648438 128.503906 233.347656 C 123.769531 224.976562 120.851562 215.679688 119.984375 206.101562 C 119.949219 205.714844 120.074219 205.371094 120.34375 205.101562 C 140.621094 184.683594 174.875 173.957031 203.367188 174.351562 C 203.664062 174.355469 203.960938 174.359375 204.253906 174.367188 C 204.90625 174.382812 205.4375 174.886719 205.484375 175.535156 C 207.097656 197.800781 189.824219 208.03125 173.105469 218.148438 C 161.089844 225.414062 146.953125 233.703125 141.558594 247.421875 C 141.398438 247.828125 141.070312 248.105469 140.644531 248.195312 C 140.214844 248.28125 139.804688 248.160156 139.492188 247.851562 Z M 197.699219 267.019531 C 188.226562 268.464844 178.601562 267.863281 169.371094 265.300781 C 160.136719 262.738281 151.578125 258.28125 144.203125 252.15625 C 143.804688 251.824219 143.652344 251.316406 143.804688 250.820312 C 148.160156 236.542969 162.792969 228.167969 174.777344 220.917969 C 192.484375 210.210938 210.179688 199.480469 208.765625 175.988281 C 208.742188 175.609375 208.867188 175.277344 209.136719 175.015625 C 209.40625 174.75 209.742188 174.628906 210.117188 174.660156 C 213.074219 174.886719 216.023438 175.238281 218.949219 175.734375 C 219.503906 175.828125 219.914062 176.253906 219.988281 176.8125 C 224.074219 208.003906 216.699219 240.6875 198.539062 266.496094 C 198.332031 266.789062 198.050781 266.964844 197.699219 267.019531 Z M 204.535156 263.34375 C 220.382812 238.257812 226.851562 207.753906 223.441406 178.34375 C 223.390625 177.921875 223.539062 177.539062 223.859375 177.257812 C 224.175781 176.972656 224.578125 176.875 224.988281 176.976562 C 226.734375 177.402344 228.460938 177.882812 230.175781 178.425781 C 230.667969 178.585938 231.003906 179.003906 231.046875 179.523438 C 232.210938 193.828125 239.351562 205.066406 247.492188 216.355469 C 248.753906 218.109375 250.042969 219.871094 251.214844 221.6875 C 251.433594 222.027344 251.480469 222.410156 251.34375 222.792969 C 245.867188 238.167969 235.070312 250.96875 220.867188 258.996094 C 216.15625 261.65625 211.144531 263.753906 205.945312 265.226562 C 205.433594 265.375 204.910156 265.195312 204.589844 264.769531 C 204.273438 264.34375 204.25 263.792969 204.535156 263.34375 Z M 255.007812 193.601562 C 255.707031 200.964844 255.183594 208.375 253.476562 215.566406 C 253.363281 216.058594 252.992188 216.414062 252.496094 216.511719 C 252.003906 216.609375 251.527344 216.421875 251.230469 216.011719 L 250.117188 214.460938 C 242.90625 204.429688 236.382812 194.574219 234.585938 182.023438 C 234.519531 181.5625 234.695312 181.132812 235.066406 180.847656 C 235.433594 180.566406 235.890625 180.503906 236.320312 180.6875 C 243.132812 183.558594 249.464844 187.546875 254.652344 192.839844 C 254.863281 193.054688 254.980469 193.304688 255.007812 193.601562 Z M 243.8125 162.25 C 244.769531 163.675781 245.667969 165.140625 246.511719 166.632812 C 249.664062 172.203125 252.023438 178.210938 253.496094 184.441406 C 253.621094 184.96875 253.410156 185.496094 252.953125 185.789062 C 252.496094 186.085938 251.933594 186.058594 251.503906 185.726562 C 246.492188 181.863281 240.847656 178.878906 234.929688 176.65625 C 234.433594 176.464844 234.121094 176.019531 234.113281 175.488281 C 234.082031 171.46875 234.25 166.042969 238.042969 163.617188 C 238.984375 163.015625 240.023438 162.632812 241.066406 162.25 C 241.480469 162.097656 241.894531 161.945312 242.304688 161.78125 C 242.863281 161.5625 243.480469 161.753906 243.8125 162.25 " fill-opacity="1" fill-rule="evenodd"/><path fill="#e05b03" d="M 165.8125 147.226562 L 163.15625 147.144531 C 158.863281 147.015625 154.101562 146.972656 149.882812 146.214844 C 149.367188 146.121094 148.984375 145.75 148.875 145.238281 C 148.765625 144.722656 148.964844 144.226562 149.398438 143.933594 C 150.941406 142.886719 152.527344 141.902344 154.148438 140.984375 C 165.625 134.496094 178.734375 131.46875 191.890625 132.332031 C 192.082031 132.34375 192.242188 132.390625 192.410156 132.480469 C 192.769531 132.675781 193.125 132.875 193.472656 133.078125 C 183.027344 135.425781 173.566406 140.378906 165.8125 147.226562 Z M 144.945312 148.144531 C 149.460938 150.179688 157.34375 150.234375 162.5 150.367188 C 153.695312 159.355469 147.582031 170.988281 145.449219 183.960938 C 136.730469 188.121094 128.667969 193.242188 121.820312 199.269531 C 121.4375 199.609375 120.917969 199.683594 120.457031 199.464844 C 119.992188 199.25 119.714844 198.804688 119.730469 198.292969 C 119.871094 192.734375 120.707031 187.210938 122.195312 181.851562 C 125.832031 168.75 133.238281 157.125 143.613281 148.328125 C 143.992188 148.007812 144.492188 147.9375 144.945312 148.144531 Z M 139.492188 247.851562 C 135.203125 243.53125 131.5 238.648438 128.503906 233.347656 C 123.769531 224.976562 120.851562 215.679688 119.984375 206.101562 C 119.949219 205.714844 120.074219 205.375 120.34375 205.101562 C 127.199219 198.199219 135.652344 192.40625 144.941406 187.773438 C 144.726562 189.878906 144.613281 192.019531 144.613281 194.1875 C 144.613281 207.378906 148.699219 219.613281 155.660156 229.707031 C 149.605469 234.546875 144.382812 240.238281 141.558594 247.421875 C 141.398438 247.828125 141.070312 248.105469 140.644531 248.195312 C 140.214844 248.28125 139.804688 248.160156 139.492188 247.851562 Z M 197.699219 267.019531 C 188.226562 268.464844 178.601562 267.863281 169.371094 265.300781 C 160.136719 262.738281 151.574219 258.28125 144.203125 252.15625 C 143.804688 251.824219 143.652344 251.316406 143.804688 250.820312 C 146.125 243.214844 151.359375 237.285156 157.558594 232.308594 C 168.523438 246.582031 185.5 255.992188 204.699219 256.757812 C 202.808594 260.097656 200.753906 263.351562 198.539062 266.496094 C 198.332031 266.789062 198.050781 266.964844 197.699219 267.019531 Z M 204.535156 263.34375 C 205.890625 261.203125 207.171875 259.019531 208.390625 256.800781 C 216.238281 256.660156 223.734375 255.074219 230.625 252.300781 C 227.59375 254.796875 224.332031 257.039062 220.867188 258.996094 C 216.15625 261.65625 211.144531 263.753906 205.941406 265.226562 C 205.429688 265.375 204.910156 265.195312 204.589844 264.769531 C 204.273438 264.34375 204.25 263.792969 204.535156 263.34375 " fill-opacity="1" fill-rule="evenodd"/></svg>